# xmcd
#
# Track frame offsets:
#	183
#	12618
#	28328
#	41010
#	55293
#	65633
#	79958
#	95593
#	108525
#	122810
#	134878
#	149403
#	162410
#	172595
#	185173
#	198500
#	210818
#	223780
#	233360
#	244203
#	256835
#
# Disc length: 3596 seconds
#
# Revision: 1
# Processed by: cddbd v1.5.1PL0 Copyright (c) Steve Scherf et al.
# Submitted via: audiograbber 1.83.01
#
DISCID=3f0e0a15
DTITLE=Suzanne Klee - Back from U.S.A. - 21 Country Greats
DYEAR=1988
DGENRE=Country
TTITLE0=A Little Bit Of Heaven
TTITLE1=Together Again
TTITLE2=Oh Lonesome Me
TTITLE3=Mother Country Music
TTITLE4=Tennessee Waltz
TTITLE5=Who Needs You
TTITLE6=Old Flames
TTITLE7=Leavin' Louisiana In The Broad Daylight
TTITLE8=Would You Lay With Me
TTITLE9=Yellow Rose Of Texas
TTITLE10=You Didn't Have To Love Me
TTITLE11=Darlin'
TTITLE12=Love Is A Rose
TTITLE13=I'll Need Someone To Hold Me
TTITLE14=I Tried Not Falling In Love With You
TTITLE15=I Still Miss Someone
TTITLE16=I Can't Help It
TTITLE17=The More I See Of These Cowboys
TTITLE18=Today I Started Loving You Again
TTITLE19=Sometimes You Don't Know It's Love
TTITLE20=I Was Kinda Crazy Then
EXTD=
EXTT0=
EXTT1=
EXTT2=
EXTT3=
EXTT4=
EXTT5=
EXTT6=
EXTT7=
EXTT8=
EXTT9=
EXTT10=
EXTT11=
EXTT12=
EXTT13=
EXTT14=
EXTT15=
EXTT16=
EXTT17=
EXTT18=
EXTT19=
EXTT20=
PLAYORDER=
